<?xml version="1.0" encoding="UTF-8"?>
<svg xmlns="http://www.w3.org/2000/svg" viewBox="44 44 936 936" width="1024" height="1024">
  <defs>
    <clipPath id="round">
      <rect x="100.0" y="100.0" width="824" height="824" rx="185" ry="185" />
    </clipPath>
  </defs>

  <g clip-path="url(#round)">
    <rect x="100.0" y="100.0" width="824" height="824" fill="#002551" />
    <g transform="translate(161.80 161.80) scale(0.5585)">
      <g><path style="opacity:1" fill="#f9f9f9" d="M 618.5,240.5 C 647.925,240.677 677.258,242.344 706.5,245.5C 753.323,252.113 798.49,265.113 842,284.5C 870.064,257.538 902.23,236.704 938.5,222C 966.969,211.263 988.469,219.096 1003,245.5C 1011.08,263.079 1016.75,281.412 1020,300.5C 1022.13,320.204 1024.29,339.871 1026.5,359.5C 1026.17,379.674 1026.5,399.674 1027.5,419.5C 1072.74,473.648 1102.74,535.314 1117.5,604.5C 1117.29,607.495 1117.96,610.162 1119.5,612.5C 1126.08,656.83 1126.08,701.163 1119.5,745.5C 1118.23,747.905 1117.57,750.572 1117.5,753.5C 1107.38,802.706 1088.05,847.872 1059.5,889C 1053.04,888.572 1046.71,887.405 1040.5,885.5C 1036.79,883.864 1032.79,883.198 1028.5,883.5C 1011.79,881.938 995.122,882.271 978.5,884.5C 975.572,884.565 972.905,885.232 970.5,886.5C 928.686,895.489 896.519,918.156 874,954.5C 864.791,970.962 859.958,988.628 859.5,1007.5C 793.269,1029.39 725.269,1041.72 655.5,1044.5C 633.833,1044.5 612.167,1044.5 590.5,1044.5C 524.821,1041.8 460.821,1029.63 398.5,1008C 396.254,996.177 393.421,984.344 390,972.5C 387.524,964.881 384.024,957.881 379.5,951.5C 363.815,925.334 341.815,906.667 313.5,895.5C 297.343,888.573 280.343,884.406 262.5,883C 248.055,882.038 233.722,882.538 219.5,884.5C 216.572,884.565 213.905,885.232 211.5,886.5C 211.167,886.5 210.833,886.5 210.5,886.5C 207.848,886.41 205.515,887.076 203.5,888.5C 200.823,889.614 198.156,889.614 195.5,888.5C 149.432,819.968 128.098,744.301 131.5,661.5C 131.502,654.48 131.835,647.48 132.5,640.5C 133.461,638.735 133.795,636.735 133.5,634.5C 135.136,630.79 135.802,626.79 135.5,622.5C 137.764,609.333 140.431,596.333 143.5,583.5C 144.924,581.485 145.59,579.152 145.5,576.5C 156.228,537.714 172.395,501.381 194,467.5C 204.685,451.452 215.852,435.786 227.5,420.5C 228.042,388.62 229.375,356.62 231.5,324.5C 234.549,300.253 240.382,276.586 249,253.5C 253.868,241.906 261.035,232.073 270.5,224C 279.336,218.042 289.002,216.042 299.5,218C 314.655,220.607 328.988,225.607 342.5,233C 368.29,247.23 391.957,264.396 413.5,284.5C 478.68,255.797 547.014,241.13 618.5,240.5 Z"/></g>
      <g><path style="opacity:1" fill="#1f2657" d="M 706.5,245.5 C 677.258,242.344 647.925,240.677 618.5,240.5C 649.662,238.284 680.995,239.784 712.5,245C 710.527,245.495 708.527,245.662 706.5,245.5 Z"/></g>
      <g><path style="opacity:1" fill="#18214c" d="M 231.5,324.5 C 229.375,356.62 228.042,388.62 227.5,420.5C 226.104,392.965 226.604,365.298 229,337.5C 229.17,331.677 230.003,327.344 231.5,324.5 Z"/></g>
      <g><path style="opacity:1" fill="#0c1943" d="M 1026.5,359.5 C 1027.92,371.971 1028.59,384.637 1028.5,397.5C 1028.5,405.008 1028.17,412.341 1027.5,419.5C 1026.5,399.674 1026.17,379.674 1026.5,359.5 Z"/></g>
      <g><path style="opacity:1" fill="#505c83" d="M 817.5,544.5 C 815.162,546.04 812.495,546.706 809.5,546.5C 811.905,545.232 814.572,544.565 817.5,544.5 Z"/></g>
      <g><path style="opacity:1" fill="#919ab0" d="M 445.5,545.5 C 448.152,545.41 450.485,546.076 452.5,547.5C 449.848,547.59 447.515,546.924 445.5,545.5 Z"/></g>
      <g><path style="opacity:1" fill="#022551" d="M 445.5,545.5 C 447.515,546.924 449.848,547.59 452.5,547.5C 479.103,555.885 499.269,572.218 513,596.5C 515.435,607.525 511.268,614.191 500.5,616.5C 497.302,616.378 494.302,615.545 491.5,614C 485.302,604.13 477.969,595.13 469.5,587C 459.207,579.735 447.873,574.902 435.5,572.5C 415.88,568.656 398.213,573.156 382.5,586C 380.905,585.383 379.572,585.716 378.5,587C 378.957,587.414 379.291,587.914 379.5,588.5C 376.839,591.423 374.005,593.423 371,594.5C 369.606,600.126 366.772,603.96 362.5,606C 363.517,607.049 363.684,608.216 363,609.5C 355.276,616.472 347.943,616.139 341,608.5C 339.805,603.4 340.638,598.733 343.5,594.5C 344.086,594.709 344.586,595.043 345,595.5C 344.718,590.888 346.551,587.055 350.5,584C 351.515,582.627 351.515,581.46 350.5,580.5C 375.329,550.884 406.995,539.218 445.5,545.5 Z"/></g>
      <g><path style="opacity:1" fill="#032551" d="M 817.5,544.5 C 862.791,541.392 895.958,559.726 917,599.5C 917.138,612.028 910.971,617.528 898.5,616C 897.167,615.333 895.833,614.667 894.5,614C 884.255,595.245 869.255,582.078 849.5,574.5C 843.812,571.54 837.645,570.207 831,570.5C 822.066,570.919 813.233,572.086 804.5,574C 798.217,577.721 792.05,581.554 786,585.5C 785.667,585.167 785.333,584.833 785,584.5C 782.92,587.065 781.087,589.732 779.5,592.5C 774.384,597.792 770.218,603.792 767,610.5C 759.55,618.016 751.883,618.349 744,611.5C 742.878,609.593 742.045,607.593 741.5,605.5C 741.508,602.455 741.841,599.455 742.5,596.5C 757.037,569.397 779.371,552.73 809.5,546.5C 812.495,546.706 815.162,546.04 817.5,544.5 Z"/></g>
      <g><path style="opacity:1" fill="#0c1a4d" d="M 849.5,574.5 C 822.908,568.314 799.574,574.314 779.5,592.5C 781.087,589.732 782.92,587.065 785,584.5C 785.333,584.833 785.667,585.167 786,585.5C 792.05,581.554 798.217,577.721 804.5,574C 813.233,572.086 822.066,570.919 831,570.5C 837.645,570.207 843.812,571.54 849.5,574.5 Z"/></g>
      <g><path style="opacity:1" fill="#98a2bf" d="M 423.5,572.5 C 419.684,573.482 415.684,574.149 411.5,574.5C 415.183,572.75 419.183,572.083 423.5,572.5 Z"/></g>
      <g><path style="opacity:1" fill="#9ea6be" d="M 145.5,576.5 C 145.59,579.152 144.924,581.485 143.5,583.5C 143.41,580.848 144.076,578.515 145.5,576.5 Z"/></g>
      <g><path style="opacity:1" fill="#132152" d="M 435.5,572.5 C 431.5,572.5 427.5,572.5 423.5,572.5C 419.183,572.083 415.183,572.75 411.5,574.5C 389.242,579.57 372.909,592.403 362.5,613C 356.408,617.241 350.075,617.574 343.5,614C 337.996,608.137 337.163,601.637 341,594.5C 343.929,589.631 347.096,584.965 350.5,580.5C 351.515,581.46 351.515,582.627 350.5,584C 346.551,587.055 344.718,590.888 345,595.5C 344.586,595.043 344.086,594.709 343.5,594.5C 340.638,598.733 339.805,603.4 341,608.5C 347.943,616.139 355.276,616.472 363,609.5C 363.684,608.216 363.517,607.049 362.5,606C 366.772,603.96 369.606,600.126 371,594.5C 374.005,593.423 376.839,591.423 379.5,588.5C 379.291,587.914 378.957,587.414 378.5,587C 379.572,585.716 380.905,585.383 382.5,586C 398.213,573.156 415.88,568.656 435.5,572.5 Z"/></g>
      <g><path style="opacity:1" fill="#6c7794" d="M 742.5,596.5 C 741.841,599.455 741.508,602.455 741.5,605.5C 740.848,604.551 740.514,603.385 740.5,602C 740.393,599.779 741.06,597.946 742.5,596.5 Z"/></g>
      <g><path style="opacity:1" fill="#6f7b97" d="M 1117.5,604.5 C 1118.77,606.905 1119.43,609.572 1119.5,612.5C 1117.96,610.162 1117.29,607.495 1117.5,604.5 Z"/></g>
      <g><path style="opacity:1" fill="#a8aec5" d="M 135.5,622.5 C 135.802,626.79 135.136,630.79 133.5,634.5C 133.717,630.295 134.383,626.295 135.5,622.5 Z"/></g>
      <g><path style="opacity:1" fill="#677393" d="M 653.5,662.5 C 634.473,662.218 615.473,662.551 596.5,663.5C 597.263,662.732 598.263,662.232 599.5,662C 617.671,661.171 635.671,661.338 653.5,662.5 Z"/></g>
      <g><path style="opacity:1" fill="#032551" d="M 653.5,662.5 C 664.536,665.228 669.036,672.228 667,683.5C 665.861,687.112 664.194,690.446 662,693.5C 656.35,700.317 650.184,706.65 643.5,712.5C 643.058,737.755 654.725,754.922 678.5,764C 709.272,768.521 729.105,756.021 738,726.5C 747.413,717.842 755.746,718.842 763,729.5C 759.409,758.463 743.909,778.297 716.5,789C 713.111,789.776 709.778,790.609 706.5,791.5C 697.533,792.383 688.533,792.716 679.5,792.5C 657.328,788.994 639.828,777.994 627,759.5C 607.084,786.202 580.584,797.035 547.5,792C 516.901,784.235 497.901,765.068 490.5,734.5C 493.257,721.955 500.59,718.121 512.5,723C 517.164,727.124 519.998,732.291 521,738.5C 533.515,761.003 552.348,769.17 577.5,763C 599.78,754.048 610.947,737.548 611,713.5C 604.698,706.197 598.032,699.197 591,692.5C 586.824,686.46 585.491,679.794 587,672.5C 589.072,668.26 592.238,665.26 596.5,663.5C 615.473,662.551 634.473,662.218 653.5,662.5 Z"/></g>
      <g><path style="opacity:1" fill="#01103f" d="M 132.5,640.5 C 131.835,647.48 131.502,654.48 131.5,661.5C 130.669,675.994 130.169,690.661 130,705.5C 128.188,682.722 128.854,660.055 132,637.5C 132.483,638.448 132.649,639.448 132.5,640.5 Z"/></g>
      <g><path style="opacity:1" fill="#7c869d" d="M 1119.5,745.5 C 1119.71,748.495 1119.04,751.162 1117.5,753.5C 1117.57,750.572 1118.23,747.905 1119.5,745.5 Z"/></g>
      <g><path style="opacity:1" fill="#7581a0" d="M 706.5,791.5 C 705.737,792.268 704.737,792.768 703.5,793C 695.323,793.823 687.323,793.656 679.5,792.5C 688.533,792.716 697.533,792.383 706.5,791.5 Z"/></g>
      <g><path style="opacity:1" fill="#a7aec3" d="M 1028.5,883.5 C 1032.79,883.198 1036.79,883.864 1040.5,885.5C 1036.29,885.283 1032.29,884.617 1028.5,883.5 Z"/></g>
      <g><path style="opacity:1" fill="#f9f9f9" d="M 233.5,904.5 C 242.833,904.5 252.167,904.5 261.5,904.5C 263.833,904.5 266.167,904.5 268.5,904.5C 304.989,908.827 334.489,925.494 357,954.5C 374.323,977.781 379.323,1003.45 372,1031.5C 365.153,1050.01 351.986,1060.85 332.5,1064C 324.173,1064.5 315.84,1064.67 307.5,1064.5C 307.947,1050.43 307.447,1036.43 306,1022.5C 296.93,1011.58 288.263,1011.91 280,1023.5C 279.833,1038.51 279.333,1053.51 278.5,1068.5C 271.841,1075.83 263.508,1080 253.5,1081C 248.845,1081.5 244.179,1081.67 239.5,1081.5C 237.485,1080.08 235.152,1079.41 232.5,1079.5C 225.481,1077.32 219.315,1073.66 214,1068.5C 213.667,1053.5 213.333,1038.5 213,1023.5C 208.464,1016.16 201.964,1013.66 193.5,1016C 190.333,1017.83 187.833,1020.33 186,1023.5C 185.5,1037.83 185.333,1052.16 185.5,1066.5C 160.376,1072.2 140.21,1064.86 125,1044.5C 120.792,1037.38 118.292,1029.71 117.5,1021.5C 117.482,1013.15 117.815,1004.82 118.5,996.5C 129.171,955.493 154.504,927.826 194.5,913.5C 200.166,912.61 205.5,910.943 210.5,908.5C 211.568,907.566 212.901,907.232 214.5,907.5C 221.111,907.453 227.444,906.453 233.5,904.5 Z"/></g>
      <g><path style="opacity:1" fill="#f8f8f9" d="M 1133.5,985.5 C 1133.41,988.152 1134.08,990.485 1135.5,992.5C 1136.26,1002.48 1136.59,1012.48 1136.5,1022.5C 1133.68,1047.82 1119.68,1062.66 1094.5,1067C 1086.48,1067.61 1078.48,1067.44 1070.5,1066.5C 1070.67,1052.83 1070.5,1039.16 1070,1025.5C 1066.12,1016.96 1059.62,1013.79 1050.5,1016C 1047.33,1017.83 1044.83,1020.33 1043,1023.5C 1042.67,1038.17 1042.33,1052.83 1042,1067.5C 1035.97,1075.1 1028.14,1079.43 1018.5,1080.5C 1013.2,1081.27 1007.87,1081.61 1002.5,1081.5C 991.789,1080.39 982.955,1075.73 976,1067.5C 975.667,1052.83 975.333,1038.17 975,1023.5C 971.569,1017.53 966.402,1014.87 959.5,1015.5C 953.942,1016.72 950.275,1020.06 948.5,1025.5C 947.505,1037.99 947.171,1050.66 947.5,1063.5C 946.209,1063.26 945.209,1063.6 944.5,1064.5C 903.542,1067.19 882.208,1048.02 880.5,1007C 880.658,1002.81 880.991,998.641 881.5,994.5C 883.277,991.495 884.277,988.162 884.5,984.5C 894.73,953.43 914.73,930.93 944.5,917C 978.246,903.385 1012.91,900.718 1048.5,909C 1082.5,918.575 1108.67,938.409 1127,968.5C 1129.86,973.928 1132.03,979.595 1133.5,985.5 Z"/></g>
      <g><path style="opacity:1" fill="#adb2c9" d="M 233.5,904.5 C 227.444,906.453 221.111,907.453 214.5,907.5C 220.536,905.419 226.869,904.419 233.5,904.5 Z"/></g>
      <g><path style="opacity:1" fill="#bec4d7" d="M 210.5,908.5 C 205.5,910.943 200.166,912.61 194.5,913.5C 199.5,911.057 204.834,909.39 210.5,908.5 Z"/></g>
      <g><path style="opacity:1" fill="#9ba0b8" d="M 884.5,984.5 C 884.277,988.162 883.277,991.495 881.5,994.5C 881.723,990.838 882.723,987.505 884.5,984.5 Z"/></g>
      <g><path style="opacity:1" fill="#9aa5bc" d="M 1133.5,985.5 C 1134.92,987.515 1135.59,989.848 1135.5,992.5C 1134.08,990.485 1133.41,988.152 1133.5,985.5 Z"/></g>
      <g><path style="opacity:1" fill="#adb1c6" d="M 118.5,996.5 C 117.815,1004.82 117.482,1013.15 117.5,1021.5C 116.835,1018.69 116.502,1015.69 116.5,1012.5C 116.429,1006.93 117.096,1001.6 118.5,996.5 Z"/></g>
      <g><path style="opacity:1" fill="#c9d0dc" d="M 1135.5,992.5 C 1136.96,998.434 1137.63,1004.6 1137.5,1011C 1137.5,1015.02 1137.17,1018.85 1136.5,1022.5C 1136.59,1012.48 1136.26,1002.48 1135.5,992.5 Z"/></g>
      <g><path style="opacity:1" fill="#b5bfcb" d="M 948.5,1025.5 C 948.5,1038.5 948.5,1051.5 948.5,1064.5C 947.167,1064.5 945.833,1064.5 944.5,1064.5C 945.209,1063.6 946.209,1063.26 947.5,1063.5C 947.171,1050.66 947.505,1037.99 948.5,1025.5 Z"/></g>
      <g><path style="opacity:1" fill="#8193aa" d="M 232.5,1079.5 C 235.152,1079.41 237.485,1080.08 239.5,1081.5C 236.848,1081.59 234.515,1080.92 232.5,1079.5 Z"/></g>
    </g>
  </g>
  <rect x="104.0" y="104.0"
        width="816" height="816"
        rx="181.0" ry="181.0"
        fill="none" stroke="#ffffff" stroke-opacity="0.4"
        stroke-width="8" />
</svg>
